<?xml version="1.0" encoding="utf-8"?>
<!-- Generator: Adobe Illustrator 19.0.0, SVG Export Plug-In . SVG Version: 6.00 Build 0)  -->
<svg version="1.1" id="Layer_1" xmlns="http://www.w3.org/2000/svg" xmlns:xlink="http://www.w3.org/1999/xlink" x="0px" y="0px"
	 viewBox="76 -76 512 512" style="enable-background:new 76 -76 512 512;" xml:space="preserve">
<style type="text/css">
	.st0{fill:#888888;}
</style>
<path class="st0" d="M396.6-5c-42.6-9.4-86.7-9.4-129.3,0l-8.9,2c-49.2,10.9-89.8,43.9-110.7,88.4c-3.1,6.7,2,14,9.4,14h349.8
	c7.4,0,12.5-7.3,9.4-14C495.4,40.9,454.8,7.9,405.5-3L396.6-5z M137.3,245.5c-8.6-34.4-10.3-70.1-5.1-105c0.8-5.1,5.2-8.8,10.4-8.8
	h378.8c5.2,0,9.6,3.7,10.4,8.8c5.2,34.9,3.5,70.6-5.1,105C512,304.4,465.1,349.9,405.6,363l-8.9,2c-42.6,9.4-86.7,9.4-129.3,0
	l-8.9-2C198.9,349.9,152,304.3,137.3,245.5L137.3,245.5z M224,163.9c-8.9,0-16.2,7.2-16.2,16.1c0,8.9,7.2,16.1,16.2,16.1h86.3
	c8.9,0,16.2-7.2,16.2-16.1c0-8.9-7.2-16.1-16.2-16.1H224z M362,239.8c-8.9,0-16.2,7.2-16.2,16.1S353,272,362,272h86.3
	c8.9,0,16.2-7.2,16.2-16.1s-7.2-16.1-16.2-16.1L362,239.8L362,239.8z"/>
</svg>
