<?xml version="1.0" encoding="utf-8"?>
<!-- Generator: Adobe Illustrator 19.0.0, SVG Export Plug-In . SVG Version: 6.00 Build 0)  -->
<svg version="1.1" id="Layer_1" xmlns="http://www.w3.org/2000/svg" xmlns:xlink="http://www.w3.org/1999/xlink" x="0px" y="0px"
	 viewBox="76 -76 512 512" style="enable-background:new 76 -76 512 512;" xml:space="preserve">
<style type="text/css">
	.st0{fill:#666666;}
</style>
<path class="st0" d="M137.1,245.2c-2.8-11.3-5.9-21-6.2-31.7c-0.5-15.4,6.3-16.1,11.5-16.1h378.8c5.2,0,12.5,3.7,11.6,14.6
	c-0.9,11.3-3.5,21.4-6.4,33.2c-14.7,58.9-61.6,104.4-121.1,117.5l-8.9,2c-42.6,9.4-86.7,9.4-129.3,0l-8.9-2
	C198.7,349.5,151.8,303.9,137.1,245.2L137.1,245.2z M526.9,114.8c2.8,11.3,5.8,21,6.2,31.7c0.5,14.4-6.3,16.1-11.5,16.1H142.9
	c-5.2,0-12.5-3.4-11.6-14.6c0.9-11.3,3.5-21.4,6.4-33.2C152.4,56,199.3,10.5,258.7-2.6l8.9-2c42.6-9.4,86.7-9.4,129.3,0l8.9,2
	C465.3,10.5,512.2,56,526.9,114.8L526.9,114.8z M283.2,253.7c-8.9,0-16.2,7.2-16.2,16.1s7.2,16.1,16.2,16.1h86.3
	c8.9,0,16.2-7.2,16.2-16.1s-7.2-16.1-16.2-16.1H283.2z M283.2,75.5c-8.9,0-16.2,7.2-16.2,16.1s7.2,16.1,16.2,16.1h86.3
	c8.9,0,16.2-7.2,16.2-16.1s-7.2-16.1-16.2-16.1H283.2z"/>
</svg>
