<?xml version="1.0" encoding="utf-8"?>
<!-- Generator: Adobe Illustrator 19.0.0, SVG Export Plug-In . SVG Version: 6.00 Build 0)  -->
<svg version="1.1" id="Layer_1" xmlns="http://www.w3.org/2000/svg" xmlns:xlink="http://www.w3.org/1999/xlink" x="0px" y="0px"
	 viewBox="76 -76 512 512" style="enable-background:new 76 -76 512 512;" xml:space="preserve">
<path d="M83.7,263c-3.6-14.4-7.5-26.8-7.9-40.4c-0.6-19.6,8-20.5,14.7-20.5h482.6c6.6,0,15.9,4.7,14.8,18.6
	c-1.1,14.4-4.5,27.3-8.2,42.3c-18.7,75-78.5,133-154.3,149.7l-11.3,2.5c-54.3,12-110.5,12-164.7,0l-11.3-2.5
	C162.2,396,102.4,337.9,83.7,263L83.7,263z M580.3,97c3.6,14.4,7.4,26.8,7.9,40.4c0.6,18.3-8,20.5-14.7,20.5H91.1
	c-6.6,0-15.9-4.3-14.8-18.6c1.1-14.4,4.5-27.3,8.2-42.3c18.7-75,78.5-133,154.2-149.7l11.3-2.5c54.3-12,110.5-12,164.7,0l11.3,2.5
	C501.8-36,561.6,22,580.3,97L580.3,97z M269.8,273.8c-11.3,0-20.6,9.2-20.6,20.5s9.2,20.5,20.6,20.5h110c11.3,0,20.6-9.2,20.6-20.5
	s-9.2-20.5-20.6-20.5H269.8z M269.8,46.8c-11.3,0-20.6,9.2-20.6,20.5s9.2,20.5,20.6,20.5h110c11.3,0,20.6-9.2,20.6-20.5
	s-9.2-20.5-20.6-20.5H269.8z"/>
</svg>
