<?xml version="1.0" encoding="utf-8"?>
<!-- Generator: Adobe Illustrator 19.0.0, SVG Export Plug-In . SVG Version: 6.00 Build 0)  -->
<svg version="1.1" id="Layer_1" xmlns="http://www.w3.org/2000/svg" xmlns:xlink="http://www.w3.org/1999/xlink" x="0px" y="0px"
	 viewBox="76 -76 512 512" style="enable-background:new 76 -76 512 512;" xml:space="preserve">
<path d="M413.6-53.6c-53.8-11.9-109.5-11.9-163.3,0l-11.2,2.5C176.9-37.3,125.7,4.4,99.3,60.5c-3.9,8.5,2.5,17.7,11.9,17.7h441.7
	c9.3,0,15.8-9.2,11.9-17.7C538.3,4.4,487.1-37.3,424.8-51.1L413.6-53.6z M86.2,262.7c-10.9-43.4-13-88.5-6.4-132.6
	c1-6.4,6.6-11.1,13.1-11.1h478.3c6.6,0,12.1,4.7,13.1,11.1c6.6,44.1,4.4,89.1-6.4,132.6c-18.6,74.4-77.8,131.8-152.9,148.4
	l-11.2,2.5c-53.8,11.9-109.5,11.9-163.3,0l-11.2-2.5C163.9,394.5,104.7,337,86.2,262.7L86.2,262.7z M195.6,159.7
	c-11.2,0-20.5,9.1-20.5,20.3c0,11.2,9.1,20.3,20.5,20.3h109c11.2,0,20.5-9.1,20.5-20.3c0-11.2-9.1-20.3-20.5-20.3H195.6z
	 M369.9,255.5c-11.2,0-20.5,9.1-20.5,20.3s9.1,20.3,20.5,20.3h109c11.2,0,20.5-9.1,20.5-20.3c0-11.2-9.1-20.3-20.5-20.3L369.9,255.5
	L369.9,255.5z"
	/>
</svg>
