<?xml version="1.0" encoding="utf-8"?>
<!-- Generator: Adobe Illustrator 19.0.0, SVG Export Plug-In . SVG Version: 6.00 Build 0)  -->
<svg version="1.1" id="Layer_1" xmlns="http://www.w3.org/2000/svg" xmlns:xlink="http://www.w3.org/1999/xlink" x="0px" y="0px"
	 viewBox="76 -76 512 512" style="enable-background:new 76 -76 512 512;" xml:space="preserve">
<path d="M138-23c0-11.6,9.4-21,21-21h346c11.6,0,21,9.4,21,21s-9.4,21-21,21H159C147.4-2,138-11.4,138-23z M204.2,207.7
	c-10.6-10.6-10.6-27.9,0-38.5L312.8,60.7c5.1-5.1,12-8,19.2-8s14.1,2.9,19.2,8l108.5,108.5c10.6,10.6,10.6,27.9,0,38.5
	c-10.6,10.6-27.9,10.6-38.5,0l-62.1-62.1v238.2c0,15-12.2,27.2-27.2,27.2s-27.2-12.2-27.2-27.2V145.6l-62.1,62.1
	C232.1,218.3,214.9,218.3,204.2,207.7L204.2,207.7z"/>
</svg>
