<?xml version="1.0" standalone="no"?>
<!DOCTYPE svg PUBLIC "-//W3C//DTD SVG 20010904//EN"
 "http://www.w3.org/TR/2001/REC-SVG-20010904/DTD/svg10.dtd">
<svg version="1.0" xmlns="http://www.w3.org/2000/svg"
 width="192.000000pt" height="192.000000pt" viewBox="0 0 192.000000 192.000000"
 preserveAspectRatio="xMidYMid meet">
<metadata>
Created by potrace 1.14, written by Peter Selinger 2001-2017
</metadata>
<g transform="translate(0.000000,192.000000) scale(0.100000,-0.100000)"
fill="#000000" stroke="none">
<path d="M497 1779 c-21 -5 -50 -15 -66 -23 -33 -18 -91 -81 -91 -100 0 -8
-19 -25 -42 -39 -80 -47 -118 -109 -112 -180 2 -23 38 -105 89 -205 78 -151
86 -172 86 -222 -1 -111 -24 -183 -79 -239 -57 -59 -72 -90 -72 -144 0 -57 20
-104 62 -143 44 -42 79 -59 174 -83 44 -11 97 -27 117 -36 20 -8 56 -15 79
-15 24 0 60 -5 82 -11 21 -6 46 -12 55 -14 159 -32 211 -53 276 -109 115 -99
285 -106 387 -16 54 47 79 102 74 163 l-3 44 54 17 c98 31 164 112 164 201 1
57 -10 79 -111 230 -53 80 -88 141 -84 148 4 7 24 30 45 52 176 190 187 212
151 306 -23 58 -113 119 -175 119 -13 0 -13 7 4 50 10 28 19 60 19 71 0 41
-32 89 -77 116 -71 41 -113 32 -348 -75 -111 -51 -206 -92 -211 -92 -6 0 -59
40 -118 89 -59 50 -121 99 -139 109 -51 31 -130 44 -190 31z m134 -72 c34 -14
126 -84 184 -140 l30 -29 -50 5 c-27 4 -106 24 -175 47 -69 22 -146 43 -172
47 -46 5 -47 6 -33 27 39 55 140 75 216 43z m975 -303 c39 -19 72 -59 80 -101
6 -32 -10 -55 -124 -179 l-71 -76 -14 49 c-22 72 -16 156 17 246 32 86 45 93
112 61z m-1169 -506 c6 -18 14 -46 17 -63 4 -16 9 -41 12 -55 10 -47 6 -180
-6 -210 -7 -16 -10 -47 -8 -69 3 -39 2 -40 -22 -35 -95 22 -160 88 -160 163 0
33 7 47 46 88 55 57 82 108 91 168 7 53 15 57 30 13z m946 -473 c76 -20 88
-38 68 -104 -16 -55 -52 -91 -111 -111 -91 -31 -152 -15 -269 70 -79 57 -139
80 -231 90 -21 2 31 17 86 25 25 3 68 10 97 16 29 5 70 12 92 15 22 3 56 10
75 14 46 12 110 7 193 -15z"/>
</g>
</svg>
